<svg width="1201" height="1200" viewBox="0 0 1201 1200" fill="none" xmlns="http://www.w3.org/2000/svg">
<g clip-path="url(#clip0_1003_29736)">
<rect x="0.601562" width="1200" height="1200" rx="600" fill="#F8F8F8"/>
<rect x="0.601562" width="1202.4" height="601.199" fill="#14B8A6"/>
<path d="M916.557 143.831H1006.32V221.055H916.557V143.831Z" fill="url(#paint0_linear_1003_29736)" fill-opacity="0.02"/>
<path d="M1005.36 446.122H1098.2V523.238H1005.36V446.122Z" fill="url(#paint1_linear_1003_29736)" fill-opacity="0.02"/>
<path d="M192.008 69.2686H282.844V146.493H192.008V69.2686Z" fill="url(#paint2_linear_1003_29736)" fill-opacity="0.02"/>
<path d="M1278.08 -154.414H1368.6V-79.2264M1278.08 -154.414V-79.2264M1278.08 -154.414H1187.56M1278.08 -79.2264H1368.6M1278.08 -79.2264H1187.56M1278.08 -79.2264V-4.03867M1368.6 -79.2264V-4.03867M1187.56 -154.414V-79.2264M1187.56 -154.414H1097.04M1187.56 -79.2264H1097.04M1187.56 -79.2264V-4.03867M1097.04 -154.414V-79.2264M1097.04 -154.414H1006.52M1097.04 -79.2264H1006.52M1097.04 -79.2264V-4.03867M1006.52 -154.414V-79.2264M1006.52 -154.414H915.994M1006.52 -79.2264H915.994M1006.52 -79.2264V-4.03867M915.994 -154.414V-79.2264M915.994 -154.414H825.472M915.994 -79.2264H825.472M915.994 -79.2264V-4.03867M825.472 -154.414V-79.2264M825.472 -154.414H734.951M825.472 -79.2264H734.951M825.472 -79.2264V-4.03867M734.951 -154.414V-79.2264M734.951 -154.414H644.429M734.951 -79.2264H644.429M734.951 -79.2264V-4.03867M644.429 -154.414V-79.2264M644.429 -154.414H553.907M644.429 -79.2264H553.907M644.429 -79.2264V-4.03867M553.907 -154.414V-79.2264M553.907 -154.414H463.386M553.907 -79.2264H463.386M553.907 -79.2264V-4.03867M463.386 -154.414V-79.2264M463.386 -154.414H372.864M463.386 -79.2264H372.864M463.386 -79.2264V-4.03867M372.864 -154.414V-79.2264M372.864 -154.414H282.343M372.864 -79.2264H282.343M372.864 -79.2264V-4.03867M282.343 -154.414V-79.2264M282.343 -154.414H191.821M282.343 -79.2264H191.821M282.343 -79.2264V-4.03867M191.821 -154.414V-79.2264M191.821 -154.414H101.299M191.821 -79.2264H101.299M191.821 -79.2264V-4.03867M101.299 -154.414V-79.2264M101.299 -154.414H10.7779M101.299 -79.2264H10.7779M101.299 -79.2264V-4.03867M10.7779 -154.414V-79.2264M10.7779 -154.414H-79.7437M10.7779 -79.2264H-79.7437M10.7779 -79.2264V-4.03867M-79.7437 -154.414V-79.2264M-79.7437 -154.414H-170.265V-79.2264M-79.7437 -79.2264H-170.265M-79.7437 -79.2264V-4.03867M-170.265 -79.2264V-4.03867M1278.08 -4.03867H1368.6M1278.08 -4.03867H1187.56M1278.08 -4.03867V71.149M1368.6 -4.03867V71.149M1187.56 -4.03867H1097.04M1187.56 -4.03867V71.149M1097.04 -4.03867H1006.52M1097.04 -4.03867V71.149M1006.52 -4.03867H915.994M1006.52 -4.03867V71.149M915.994 -4.03867H825.472M915.994 -4.03867V71.149M825.472 -4.03867H734.951M825.472 -4.03867V71.149M734.951 -4.03867H644.429M734.951 -4.03867V71.149M644.429 -4.03867H553.907M644.429 -4.03867V71.149M553.907 -4.03867H463.386M553.907 -4.03867V71.149M463.386 -4.03867H372.864M463.386 -4.03867V71.149M372.864 -4.03867H282.343M372.864 -4.03867V71.149M282.343 -4.03867H191.821M282.343 -4.03867V71.149M191.821 -4.03867H101.299M191.821 -4.03867V71.149M101.299 -4.03867H10.7779M101.299 -4.03867V71.149M10.7779 -4.03867H-79.7437M10.7779 -4.03867V71.149M-79.7437 -4.03867H-170.265M-79.7437 -4.03867V71.149M-170.265 -4.03867V71.149M1278.08 71.149H1368.6M1278.08 71.149H1187.56M1278.08 71.149V146.337M1368.6 71.149V146.337M1187.56 71.149H1097.04M1187.56 71.149V146.337M1097.04 71.149H1006.52M1097.04 71.149V146.337M1006.52 71.149H915.994M1006.52 71.149V146.337M915.994 71.149H825.472M915.994 71.149V146.337M825.472 71.149H734.951M825.472 71.149V146.337M734.951 71.149H644.429M734.951 71.149V146.337M644.429 71.149H553.907M644.429 71.149V146.337M553.907 71.149H463.386M553.907 71.149V146.337M463.386 71.149H372.864M463.386 71.149V146.337M372.864 71.149H282.343M372.864 71.149V146.337M282.343 71.149H191.821M282.343 71.149V146.337M191.821 71.149H101.299M191.821 71.149V146.337M101.299 71.149H10.7779M101.299 71.149V146.337M10.7779 71.149H-79.7437M10.7779 71.149V146.337M-79.7437 71.149H-170.265M-79.7437 71.149V146.337M-170.265 71.149V146.337M1278.08 146.337H1368.6M1278.08 146.337H1187.56M1278.08 146.337V221.524M1368.6 146.337V221.524M1187.56 146.337H1097.04M1187.56 146.337V221.524M1097.04 146.337H1006.52M1097.04 146.337V221.524M1006.52 146.337H915.994M1006.52 146.337V221.524M915.994 146.337H825.472M915.994 146.337V221.524M825.472 146.337H734.951M825.472 146.337V221.524M734.951 146.337H644.429M734.951 146.337V221.524M644.429 146.337H553.907M644.429 146.337V221.524M553.907 146.337H463.386M553.907 146.337V221.524M463.386 146.337H372.864M463.386 146.337V221.524M372.864 146.337H282.343M372.864 146.337V221.524M282.343 146.337H191.821M282.343 146.337V221.524M191.821 146.337H101.299M191.821 146.337V221.524M101.299 146.337H10.7779M101.299 146.337V221.524M10.7779 146.337H-79.7437M10.7779 146.337V221.524M-79.7437 146.337H-170.265M-79.7437 146.337V221.524M-170.265 146.337V221.524M1278.08 221.524H1368.6M1278.08 221.524H1187.56M1278.08 221.524V296.712M1368.6 221.524V296.712M1187.56 221.524H1097.04M1187.56 221.524V296.712M1097.04 221.524H1006.52M1097.04 221.524V296.712M1006.52 221.524H915.994M1006.52 221.524V296.712M915.994 221.524H825.472M915.994 221.524V296.712M825.472 221.524H734.951M825.472 221.524V296.712M734.951 221.524H644.429M734.951 221.524V296.712M644.429 221.524H553.907M644.429 221.524V296.712M553.907 221.524H463.386M553.907 221.524V296.712M463.386 221.524H372.864M463.386 221.524V296.712M372.864 221.524H282.343M372.864 221.524V296.712M282.343 221.524H191.821M282.343 221.524V296.712M191.821 221.524H101.299M191.821 221.524V296.712M101.299 221.524H10.7779M101.299 221.524V296.712M10.7779 221.524H-79.7437M10.7779 221.524V296.712M-79.7437 221.524H-170.265M-79.7437 221.524V296.712M-170.265 221.524V296.712M1278.08 296.712H1368.6M1278.08 296.712H1187.56M1278.08 296.712V371.9M1368.6 296.712V371.9M1187.56 296.712H1097.04M1187.56 296.712V371.9M1097.04 296.712H1006.52M1097.04 296.712V371.9M1006.52 296.712H915.994M1006.52 296.712V371.9M915.994 296.712H825.472M915.994 296.712V371.9M825.472 296.712H734.951M825.472 296.712V371.9M734.951 296.712H644.429M734.951 296.712V371.9M644.429 296.712H553.907M644.429 296.712V371.9M553.907 296.712H463.386M553.907 296.712V371.9M463.386 296.712H372.864M463.386 296.712V371.9M372.864 296.712H282.343M372.864 296.712V371.9M282.343 296.712H191.821M282.343 296.712V371.9M191.821 296.712H101.299M191.821 296.712V371.9M101.299 296.712H10.7779M101.299 296.712V371.9M10.7779 296.712H-79.7437M10.7779 296.712V371.9M-79.7437 296.712H-170.265M-79.7437 296.712V371.9M-170.265 296.712V371.9M1278.08 371.9H1368.6M1278.08 371.9H1187.56M1278.08 371.9V447.088M1368.6 371.9V447.088M1187.56 371.9H1097.04M1187.56 371.9V447.088M1097.04 371.9H1006.52M1097.04 371.9V447.088M1006.52 371.9H915.994M1006.52 371.9V447.088M915.994 371.9H825.472M915.994 371.9V447.088M825.472 371.9H734.951M825.472 371.9V447.088M734.951 371.9H644.429M734.951 371.9V447.088M644.429 371.9H553.907M644.429 371.9V447.088M553.907 371.9H463.386M553.907 371.9V447.088M463.386 371.9H372.864M463.386 371.9V447.088M372.864 371.9H282.343M372.864 371.9V447.088M282.343 371.9H191.821M282.343 371.9V447.088M191.821 371.9H101.299M191.821 371.9V447.088M101.299 371.9H10.7779M101.299 371.9V447.088M10.7779 371.9H-79.7437M10.7779 371.9V447.088M-79.7437 371.9H-170.265M-79.7437 371.9V447.088M-170.265 371.9V447.088M1278.08 447.088H1368.6M1278.08 447.088H1187.56M1278.08 447.088V522.275M1368.6 447.088V522.275M1187.56 447.088H1097.04M1187.56 447.088V522.275M1097.04 447.088H1006.52M1097.04 447.088V522.275M1006.52 447.088H915.994M1006.52 447.088V522.275M915.994 447.088H825.472M915.994 447.088V522.275M825.472 447.088H734.951M825.472 447.088V522.275M734.951 447.088H644.429M734.951 447.088V522.275M644.429 447.088H553.907M644.429 447.088V522.275M553.907 447.088H463.386M553.907 447.088V522.275M463.386 447.088H372.864M463.386 447.088V522.275M372.864 447.088H282.343M372.864 447.088V522.275M282.343 447.088H191.821M282.343 447.088V522.275M191.821 447.088H101.299M191.821 447.088V522.275M101.299 447.088H10.7779M101.299 447.088V522.275M10.7779 447.088H-79.7437M10.7779 447.088V522.275M-79.7437 447.088H-170.265M-79.7437 447.088V522.275M-170.265 447.088V522.275M1278.08 522.275H1368.6M1278.08 522.275H1187.56M1278.08 522.275V597.463M1368.6 522.275V597.463M1187.56 522.275H1097.04M1187.56 522.275V597.463M1097.04 522.275H1006.52M1097.04 522.275V597.463M1006.52 522.275H915.994M1006.52 522.275V597.463M915.994 522.275H825.472M915.994 522.275V597.463M825.472 522.275H734.951M825.472 522.275V597.463M734.951 522.275H644.429M734.951 522.275V597.463M644.429 522.275H553.907M644.429 522.275V597.463M553.907 522.275H463.386M553.907 522.275V597.463M463.386 522.275H372.864M463.386 522.275V597.463M372.864 522.275H282.343M372.864 522.275V597.463M282.343 522.275H191.821M282.343 522.275V597.463M191.821 522.275H101.299M191.821 522.275V597.463M101.299 522.275H10.7779M101.299 522.275V597.463M10.7779 522.275H-79.7437M10.7779 522.275V597.463M-79.7437 522.275H-170.265M-79.7437 522.275V597.463M-170.265 522.275V597.463M1278.08 597.463H1368.6M1278.08 597.463H1187.56M1278.08 597.463V672.651M1368.6 597.463V672.651M1187.56 597.463H1097.04M1187.56 597.463V672.651M1097.04 597.463H1006.52M1097.04 597.463V672.651M1006.52 597.463H915.994M1006.52 597.463V672.651M915.994 597.463H825.472M915.994 597.463V672.651M825.472 597.463H734.951M825.472 597.463V672.651M734.951 597.463H644.429M734.951 597.463V672.651M644.429 597.463H553.907M644.429 597.463V672.651M553.907 597.463H463.386M553.907 597.463V672.651M463.386 597.463H372.864M463.386 597.463V672.651M372.864 597.463H282.343M372.864 597.463V672.651M282.343 597.463H191.821M282.343 597.463V672.651M191.821 597.463H101.299M191.821 597.463V672.651M101.299 597.463H10.7779M101.299 597.463V672.651M10.7779 597.463H-79.7437M10.7779 597.463V672.651M-79.7437 597.463H-170.265M-79.7437 597.463V672.651M-170.265 597.463V672.651M1278.08 672.651H1368.6M1278.08 672.651H1187.56M1278.08 672.651V747.838M1368.6 672.651V747.838H1278.08M1187.56 672.651H1097.04M1187.56 672.651V747.838M1097.04 672.651H1006.52M1097.04 672.651V747.838M1006.52 672.651H915.994M1006.52 672.651V747.838M915.994 672.651H825.472M915.994 672.651V747.838M825.472 672.651H734.951M825.472 672.651V747.838M734.951 672.651H644.429M734.951 672.651V747.838M644.429 672.651H553.907M644.429 672.651V747.838M553.907 672.651H463.386M553.907 672.651V747.838M463.386 672.651H372.864M463.386 672.651V747.838M372.864 672.651H282.343M372.864 672.651V747.838M282.343 672.651H191.821M282.343 672.651V747.838M191.821 672.651H101.299M191.821 672.651V747.838M101.299 672.651H10.7779M101.299 672.651V747.838M10.7779 672.651H-79.7437M10.7779 672.651V747.838M-79.7437 672.651H-170.265M-79.7437 672.651V747.838M-170.265 672.651V747.838H-79.7437M1278.08 747.838H1187.56M1187.56 747.838H1097.04M1097.04 747.838H1006.52M1006.52 747.838H915.994M915.994 747.838H825.472M825.472 747.838H734.951M734.951 747.838H644.429M644.429 747.838H553.907M553.907 747.838H463.386M463.386 747.838H372.864M372.864 747.838H282.343M282.343 747.838H191.821M191.821 747.838H101.299M101.299 747.838H10.7779M10.7779 747.838H-79.7437" stroke="url(#paint3_radial_1003_29736)" stroke-opacity="0.16" stroke-width="1.51687"/>
<path d="M916.557 595.846H1006.32V673.07H916.557V595.846Z" fill="url(#paint4_linear_1003_29736)" fill-opacity="0.02"/>
<path d="M1005.36 898.137H1098.2V975.252H1005.36V898.137Z" fill="url(#paint5_linear_1003_29736)" fill-opacity="0.02"/>
<path d="M192.008 521.283H282.844V598.507H192.008V521.283Z" fill="url(#paint6_linear_1003_29736)" fill-opacity="0.02"/>
<path d="M1278.08 297.601H1368.6V372.788M1278.08 297.601V372.788M1278.08 297.601H1187.56M1278.08 372.788H1368.6M1278.08 372.788H1187.56M1278.08 372.788V447.976M1368.6 372.788V447.976M1187.56 297.601V372.788M1187.56 297.601H1097.04M1187.56 372.788H1097.04M1187.56 372.788V447.976M1097.04 297.601V372.788M1097.04 297.601H1006.52M1097.04 372.788H1006.52M1097.04 372.788V447.976M1006.52 297.601V372.788M1006.52 297.601H915.994M1006.52 372.788H915.994M1006.52 372.788V447.976M915.994 297.601V372.788M915.994 297.601H825.472M915.994 372.788H825.472M915.994 372.788V447.976M825.472 297.601V372.788M825.472 297.601H734.951M825.472 372.788H734.951M825.472 372.788V447.976M734.951 297.601V372.788M734.951 297.601H644.429M734.951 372.788H644.429M734.951 372.788V447.976M644.429 297.601V372.788M644.429 297.601H553.907M644.429 372.788H553.907M644.429 372.788V447.976M553.907 297.601V372.788M553.907 297.601H463.386M553.907 372.788H463.386M553.907 372.788V447.976M463.386 297.601V372.788M463.386 297.601H372.864M463.386 372.788H372.864M463.386 372.788V447.976M372.864 297.601V372.788M372.864 297.601H282.343M372.864 372.788H282.343M372.864 372.788V447.976M282.343 297.601V372.788M282.343 297.601H191.821M282.343 372.788H191.821M282.343 372.788V447.976M191.821 297.601V372.788M191.821 297.601H101.299M191.821 372.788H101.299M191.821 372.788V447.976M101.299 297.601V372.788M101.299 297.601H10.7779M101.299 372.788H10.7779M101.299 372.788V447.976M10.7779 297.601V372.788M10.7779 297.601H-79.7437M10.7779 372.788H-79.7437M10.7779 372.788V447.976M-79.7437 297.601V372.788M-79.7437 297.601H-170.265V372.788M-79.7437 372.788H-170.265M-79.7437 372.788V447.976M-170.265 372.788V447.976M1278.08 447.976H1368.6M1278.08 447.976H1187.56M1278.08 447.976V523.164M1368.6 447.976V523.164M1187.56 447.976H1097.04M1187.56 447.976V523.164M1097.04 447.976H1006.52M1097.04 447.976V523.164M1006.52 447.976H915.994M1006.52 447.976V523.164M915.994 447.976H825.472M915.994 447.976V523.164M825.472 447.976H734.951M825.472 447.976V523.164M734.951 447.976H644.429M734.951 447.976V523.164M644.429 447.976H553.907M644.429 447.976V523.164M553.907 447.976H463.386M553.907 447.976V523.164M463.386 447.976H372.864M463.386 447.976V523.164M372.864 447.976H282.343M372.864 447.976V523.164M282.343 447.976H191.821M282.343 447.976V523.164M191.821 447.976H101.299M191.821 447.976V523.164M101.299 447.976H10.7779M101.299 447.976V523.164M10.7779 447.976H-79.7437M10.7779 447.976V523.164M-79.7437 447.976H-170.265M-79.7437 447.976V523.164M-170.265 447.976V523.164M1278.08 523.164H1368.6M1278.08 523.164H1187.56M1278.08 523.164V598.351M1368.6 523.164V598.351M1187.56 523.164H1097.04M1187.56 523.164V598.351M1097.04 523.164H1006.52M1097.04 523.164V598.351M1006.52 523.164H915.994M1006.52 523.164V598.351M915.994 523.164H825.472M915.994 523.164V598.351M825.472 523.164H734.951M825.472 523.164V598.351M734.951 523.164H644.429M734.951 523.164V598.351M644.429 523.164H553.907M644.429 523.164V598.351M553.907 523.164H463.386M553.907 523.164V598.351M463.386 523.164H372.864M463.386 523.164V598.351M372.864 523.164H282.343M372.864 523.164V598.351M282.343 523.164H191.821M282.343 523.164V598.351M191.821 523.164H101.299M191.821 523.164V598.351M101.299 523.164H10.7779M101.299 523.164V598.351M10.7779 523.164H-79.7437M10.7779 523.164V598.351M-79.7437 523.164H-170.265M-79.7437 523.164V598.351M-170.265 523.164V598.351M1278.08 598.351H1368.6M1278.08 598.351H1187.56M1278.08 598.351V673.539M1368.6 598.351V673.539M1187.56 598.351H1097.04M1187.56 598.351V673.539M1097.04 598.351H1006.52M1097.04 598.351V673.539M1006.52 598.351H915.994M1006.52 598.351V673.539M915.994 598.351H825.472M915.994 598.351V673.539M825.472 598.351H734.951M825.472 598.351V673.539M734.951 598.351H644.429M734.951 598.351V673.539M644.429 598.351H553.907M644.429 598.351V673.539M553.907 598.351H463.386M553.907 598.351V673.539M463.386 598.351H372.864M463.386 598.351V673.539M372.864 598.351H282.343M372.864 598.351V673.539M282.343 598.351H191.821M282.343 598.351V673.539M191.821 598.351H101.299M191.821 598.351V673.539M101.299 598.351H10.7779M101.299 598.351V673.539M10.7779 598.351H-79.7437M10.7779 598.351V673.539M-79.7437 598.351H-170.265M-79.7437 598.351V673.539M-170.265 598.351V673.539M1278.08 673.539H1368.6M1278.08 673.539H1187.56M1278.08 673.539V748.727M1368.6 673.539V748.727M1187.56 673.539H1097.04M1187.56 673.539V748.727M1097.04 673.539H1006.52M1097.04 673.539V748.727M1006.52 673.539H915.994M1006.52 673.539V748.727M915.994 673.539H825.472M915.994 673.539V748.727M825.472 673.539H734.951M825.472 673.539V748.727M734.951 673.539H644.429M734.951 673.539V748.727M644.429 673.539H553.907M644.429 673.539V748.727M553.907 673.539H463.386M553.907 673.539V748.727M463.386 673.539H372.864M463.386 673.539V748.727M372.864 673.539H282.343M372.864 673.539V748.727M282.343 673.539H191.821M282.343 673.539V748.727M191.821 673.539H101.299M191.821 673.539V748.727M101.299 673.539H10.7779M101.299 673.539V748.727M10.7779 673.539H-79.7437M10.7779 673.539V748.727M-79.7437 673.539H-170.265M-79.7437 673.539V748.727M-170.265 673.539V748.727M1278.08 748.727H1368.6M1278.08 748.727H1187.56M1278.08 748.727V823.914M1368.6 748.727V823.914M1187.56 748.727H1097.04M1187.56 748.727V823.914M1097.04 748.727H1006.52M1097.04 748.727V823.914M1006.52 748.727H915.994M1006.52 748.727V823.914M915.994 748.727H825.472M915.994 748.727V823.914M825.472 748.727H734.951M825.472 748.727V823.914M734.951 748.727H644.429M734.951 748.727V823.914M644.429 748.727H553.907M644.429 748.727V823.914M553.907 748.727H463.386M553.907 748.727V823.914M463.386 748.727H372.864M463.386 748.727V823.914M372.864 748.727H282.343M372.864 748.727V823.914M282.343 748.727H191.821M282.343 748.727V823.914M191.821 748.727H101.299M191.821 748.727V823.914M101.299 748.727H10.7779M101.299 748.727V823.914M10.7779 748.727H-79.7437M10.7779 748.727V823.914M-79.7437 748.727H-170.265M-79.7437 748.727V823.914M-170.265 748.727V823.914M1278.08 823.914H1368.6M1278.08 823.914H1187.56M1278.08 823.914V899.102M1368.6 823.914V899.102M1187.56 823.914H1097.04M1187.56 823.914V899.102M1097.04 823.914H1006.52M1097.04 823.914V899.102M1006.52 823.914H915.994M1006.52 823.914V899.102M915.994 823.914H825.472M915.994 823.914V899.102M825.472 823.914H734.951M825.472 823.914V899.102M734.951 823.914H644.429M734.951 823.914V899.102M644.429 823.914H553.907M644.429 823.914V899.102M553.907 823.914H463.386M553.907 823.914V899.102M463.386 823.914H372.864M463.386 823.914V899.102M372.864 823.914H282.343M372.864 823.914V899.102M282.343 823.914H191.821M282.343 823.914V899.102M191.821 823.914H101.299M191.821 823.914V899.102M101.299 823.914H10.7779M101.299 823.914V899.102M10.7779 823.914H-79.7437M10.7779 823.914V899.102M-79.7437 823.914H-170.265M-79.7437 823.914V899.102M-170.265 823.914V899.102M1278.08 899.102H1368.6M1278.08 899.102H1187.56M1278.08 899.102V974.29M1368.6 899.102V974.29M1187.56 899.102H1097.04M1187.56 899.102V974.29M1097.04 899.102H1006.52M1097.04 899.102V974.29M1006.52 899.102H915.994M1006.52 899.102V974.29M915.994 899.102H825.472M915.994 899.102V974.29M825.472 899.102H734.951M825.472 899.102V974.29M734.951 899.102H644.429M734.951 899.102V974.29M644.429 899.102H553.907M644.429 899.102V974.29M553.907 899.102H463.386M553.907 899.102V974.29M463.386 899.102H372.864M463.386 899.102V974.29M372.864 899.102H282.343M372.864 899.102V974.29M282.343 899.102H191.821M282.343 899.102V974.29M191.821 899.102H101.299M191.821 899.102V974.29M101.299 899.102H10.7779M101.299 899.102V974.29M10.7779 899.102H-79.7437M10.7779 899.102V974.29M-79.7437 899.102H-170.265M-79.7437 899.102V974.29M-170.265 899.102V974.29M1278.08 974.29H1368.6M1278.08 974.29H1187.56M1278.08 974.29V1049.48M1368.6 974.29V1049.48M1187.56 974.29H1097.04M1187.56 974.29V1049.48M1097.04 974.29H1006.52M1097.04 974.29V1049.48M1006.52 974.29H915.994M1006.52 974.29V1049.48M915.994 974.29H825.472M915.994 974.29V1049.48M825.472 974.29H734.951M825.472 974.29V1049.48M734.951 974.29H644.429M734.951 974.29V1049.48M644.429 974.29H553.907M644.429 974.29V1049.48M553.907 974.29H463.386M553.907 974.29V1049.48M463.386 974.29H372.864M463.386 974.29V1049.48M372.864 974.29H282.343M372.864 974.29V1049.48M282.343 974.29H191.821M282.343 974.29V1049.48M191.821 974.29H101.299M191.821 974.29V1049.48M101.299 974.29H10.7779M101.299 974.29V1049.48M10.7779 974.29H-79.7437M10.7779 974.29V1049.48M-79.7437 974.29H-170.265M-79.7437 974.29V1049.48M-170.265 974.29V1049.48M1278.08 1049.48H1368.6M1278.08 1049.48H1187.56M1278.08 1049.48V1124.67M1368.6 1049.48V1124.67M1187.56 1049.48H1097.04M1187.56 1049.48V1124.67M1097.04 1049.48H1006.52M1097.04 1049.48V1124.67M1006.52 1049.48H915.994M1006.52 1049.48V1124.67M915.994 1049.48H825.472M915.994 1049.48V1124.67M825.472 1049.48H734.951M825.472 1049.48V1124.67M734.951 1049.48H644.429M734.951 1049.48V1124.67M644.429 1049.48H553.907M644.429 1049.48V1124.67M553.907 1049.48H463.386M553.907 1049.48V1124.67M463.386 1049.48H372.864M463.386 1049.48V1124.67M372.864 1049.48H282.343M372.864 1049.48V1124.67M282.343 1049.48H191.821M282.343 1049.48V1124.67M191.821 1049.48H101.299M191.821 1049.48V1124.67M101.299 1049.48H10.7779M101.299 1049.48V1124.67M10.7779 1049.48H-79.7437M10.7779 1049.48V1124.67M-79.7437 1049.48H-170.265M-79.7437 1049.48V1124.67M-170.265 1049.48V1124.67M1278.08 1124.67H1368.6M1278.08 1124.67H1187.56M1278.08 1124.67V1199.85M1368.6 1124.67V1199.85H1278.08M1187.56 1124.67H1097.04M1187.56 1124.67V1199.85M1097.04 1124.67H1006.52M1097.04 1124.67V1199.85M1006.52 1124.67H915.994M1006.52 1124.67V1199.85M915.994 1124.67H825.472M915.994 1124.67V1199.85M825.472 1124.67H734.951M825.472 1124.67V1199.85M734.951 1124.67H644.429M734.951 1124.67V1199.85M644.429 1124.67H553.907M644.429 1124.67V1199.85M553.907 1124.67H463.386M553.907 1124.67V1199.85M463.386 1124.67H372.864M463.386 1124.67V1199.85M372.864 1124.67H282.343M372.864 1124.67V1199.85M282.343 1124.67H191.821M282.343 1124.67V1199.85M191.821 1124.67H101.299M191.821 1124.67V1199.85M101.299 1124.67H10.7779M101.299 1124.67V1199.85M10.7779 1124.67H-79.7437M10.7779 1124.67V1199.85M-79.7437 1124.67H-170.265M-79.7437 1124.67V1199.85M-170.265 1124.67V1199.85H-79.7437M1278.08 1199.85H1187.56M1187.56 1199.85H1097.04M1097.04 1199.85H1006.52M1006.52 1199.85H915.994M915.994 1199.85H825.472M825.472 1199.85H734.951M734.951 1199.85H644.429M644.429 1199.85H553.907M553.907 1199.85H463.386M463.386 1199.85H372.864M372.864 1199.85H282.343M282.343 1199.85H191.821M191.821 1199.85H101.299M101.299 1199.85H10.7779M10.7779 1199.85H-79.7437" stroke="url(#paint7_radial_1003_29736)" stroke-opacity="0.16" stroke-width="1.51687"/>
<circle cx="600.804" cy="600.198" r="550.698" fill="white"/>
<path fill-rule="evenodd" clip-rule="evenodd" d="M866.995 623.272V337.833C866.995 334.186 864.911 331.201 862.364 331.201H569.17C568.197 331.201 567.271 331.599 566.484 332.395L470.389 430.15C466.73 433.864 468.582 442.153 473.075 442.153H709.77L855.927 343.868L750.523 464.636V736.479C750.523 741.917 754.83 745.034 757.887 741.784L865.097 628.577C866.301 627.317 866.995 625.394 866.995 623.272ZM632.211 867.723L728.401 769.852C732.058 766.128 730.206 757.961 725.716 757.961H452.84C450.294 757.961 448.211 755.086 448.211 751.428V463.628C448.211 458.206 443.86 455.135 440.805 458.402L333.645 571.561C332.487 572.803 331.793 574.763 331.793 576.788V816.697C331.793 845.575 348.365 868.965 368.825 868.965H629.48C630.452 868.965 631.425 868.507 632.211 867.723Z" fill="black"/>
</g>
<defs>
<linearGradient id="paint0_linear_1003_29736" x1="961.441" y1="143.831" x2="961.441" y2="221.055" gradientUnits="userSpaceOnUse">
<stop stop-color="#18181B" stop-opacity="0"/>
<stop offset="1" stop-color="#18181B"/>
</linearGradient>
<linearGradient id="paint1_linear_1003_29736" x1="1051.78" y1="446.122" x2="1051.78" y2="523.238" gradientUnits="userSpaceOnUse">
<stop stop-color="#18181B" stop-opacity="0"/>
<stop offset="1" stop-color="#18181B"/>
</linearGradient>
<linearGradient id="paint2_linear_1003_29736" x1="237.426" y1="69.2686" x2="237.426" y2="146.493" gradientUnits="userSpaceOnUse">
<stop stop-color="#18181B" stop-opacity="0"/>
<stop offset="1" stop-color="#18181B"/>
</linearGradient>
<radialGradient id="paint3_radial_1003_29736" cx="0" cy="0" r="1" gradientUnits="userSpaceOnUse" gradientTransform="translate(599.168 320.811) rotate(90) scale(426.064 770.594)">
<stop stop-color="#18181B"/>
<stop offset="1" stop-color="#18181B" stop-opacity="0"/>
</radialGradient>
<linearGradient id="paint4_linear_1003_29736" x1="961.441" y1="595.846" x2="961.441" y2="673.07" gradientUnits="userSpaceOnUse">
<stop stop-color="#18181B" stop-opacity="0"/>
<stop offset="1" stop-color="#18181B"/>
</linearGradient>
<linearGradient id="paint5_linear_1003_29736" x1="1051.78" y1="898.137" x2="1051.78" y2="975.252" gradientUnits="userSpaceOnUse">
<stop stop-color="#18181B" stop-opacity="0"/>
<stop offset="1" stop-color="#18181B"/>
</linearGradient>
<linearGradient id="paint6_linear_1003_29736" x1="237.426" y1="521.283" x2="237.426" y2="598.507" gradientUnits="userSpaceOnUse">
<stop stop-color="#18181B" stop-opacity="0"/>
<stop offset="1" stop-color="#18181B"/>
</linearGradient>
<radialGradient id="paint7_radial_1003_29736" cx="0" cy="0" r="1" gradientUnits="userSpaceOnUse" gradientTransform="translate(599.168 772.825) rotate(90) scale(426.064 770.594)">
<stop/>
<stop offset="1" stop-opacity="0"/>
</radialGradient>
<clipPath id="clip0_1003_29736">
<rect x="0.601562" width="1200" height="1200" rx="600" fill="white"/>
</clipPath>
</defs>
</svg>
